<?xml version="1.0" encoding="UTF-8" standalone="no"?><!DOCTYPE svg PUBLIC "-//W3C//DTD SVG 1.1//EN" "http://www.w3.org/Graphics/SVG/1.1/DTD/svg11.dtd"><svg width="100%" height="100%" viewBox="0 0 32 32" version="1.1" xmlns="http://www.w3.org/2000/svg" xmlns:xlink="http://www.w3.org/1999/xlink" xml:space="preserve" xmlns:serif="http://www.serif.com/" style="fill-rule:evenodd;clip-rule:evenodd;stroke-linejoin:round;stroke-miterlimit:2;"><path id="Dead-Items" serif:id="Dead Items" d="M0,0l0,32l32,0l0,-32l-32,0Z" style="fill:none;"/><clipPath id="_clip1"><path d="M0,0l0,32l32,0l0,-32l-32,0Z"/></clipPath><g clip-path="url(#_clip1)"><path id="New-Document" serif:id="New Document" d="M27.824,16.88l4.302,4.337" style="fill:none;fill-rule:nonzero;"/><path id="Calendar" d="M17.265,2.925c0.149,0.003 0.298,0.011 0.446,0.028c0.342,0.039 0.68,0.119 1.003,0.238c0.63,0.23 1.203,0.607 1.665,1.092c0.427,0.447 0.757,0.984 0.962,1.567c0.109,0.308 0.183,0.628 0.22,0.953c0.017,0.148 0.025,0.297 0.028,0.446c0.025,3.834 0.025,7.668 0,11.503c-0.003,0.149 -0.011,0.297 -0.028,0.445c-0.037,0.325 -0.111,0.645 -0.22,0.953c-0.205,0.583 -0.535,1.12 -0.962,1.567c-0.462,0.485 -1.035,0.862 -1.665,1.093c-0.323,0.118 -0.661,0.198 -1.003,0.237c-0.148,0.017 -0.297,0.026 -0.446,0.028c-3.834,0.025 -7.668,0.025 -11.503,0c-0.149,-0.002 -0.297,-0.011 -0.446,-0.028c-0.342,-0.039 -0.679,-0.119 -1.003,-0.237c-0.563,-0.207 -1.082,-0.53 -1.516,-0.944c-0.498,-0.475 -0.882,-1.067 -1.111,-1.716c-0.109,-0.308 -0.182,-0.628 -0.219,-0.953c-0.017,-0.148 -0.026,-0.296 -0.029,-0.445c-0.025,-3.835 -0.025,-7.669 0,-11.503c0.003,-0.149 0.012,-0.298 0.029,-0.446c0.037,-0.325 0.11,-0.645 0.219,-0.953c0.229,-0.649 0.613,-1.241 1.111,-1.715c0.434,-0.414 0.953,-0.738 1.516,-0.944c0.324,-0.119 0.661,-0.199 1.003,-0.238c0.149,-0.017 0.297,-0.025 0.446,-0.028c3.835,-0.025 7.669,-0.025 11.503,0Zm3.458,6.132l-18.418,0c-0.015,3.228 -0.012,6.456 0.009,9.683c0.003,0.135 0.011,0.268 0.028,0.402c0.031,0.244 0.088,0.485 0.17,0.717c0.183,0.519 0.491,0.992 0.889,1.372c0.348,0.332 0.763,0.591 1.214,0.756c0.258,0.095 0.528,0.158 0.801,0.19c0.119,0.013 0.238,0.02 0.357,0.022c3.827,0.024 7.654,0.024 11.481,0c0.12,-0.002 0.239,-0.009 0.357,-0.022c0.274,-0.032 0.544,-0.095 0.802,-0.19c0.504,-0.185 0.962,-0.487 1.332,-0.875c0.341,-0.357 0.606,-0.787 0.77,-1.253c0.087,-0.246 0.146,-0.502 0.175,-0.761c0.014,-0.119 0.021,-0.238 0.023,-0.358c0.021,-3.227 0.024,-6.455 0.01,-9.683Zm-16.218,9.2c0.483,0 0.876,0.393 0.876,0.876c0,0.484 -0.393,0.876 -0.876,0.876c-0.484,0 -0.877,-0.392 -0.877,-0.876c0,-0.483 0.393,-0.876 0.877,-0.876Zm10.513,0c0.484,0 0.876,0.393 0.876,0.876c0,0.484 -0.392,0.876 -0.876,0.876c-0.483,0 -0.876,-0.392 -0.876,-0.876c0,-0.483 0.393,-0.876 0.876,-0.876Zm-7.009,0c0.484,0 0.876,0.393 0.876,0.876c0,0.484 -0.392,0.876 -0.876,0.876c-0.483,0 -0.876,-0.392 -0.876,-0.876c0,-0.483 0.393,-0.876 0.876,-0.876Zm10.514,0c0.483,0 0.876,0.393 0.876,0.876c0,0.484 -0.393,0.876 -0.876,0.876c-0.484,0 -0.876,-0.392 -0.876,-0.876c0,-0.483 0.392,-0.876 0.876,-0.876Zm-7.009,0c0.483,0 0.876,0.393 0.876,0.876c0,0.484 -0.393,0.876 -0.876,0.876c-0.484,0 -0.876,-0.392 -0.876,-0.876c0,-0.483 0.392,-0.876 0.876,-0.876Zm3.504,-4.381c0.967,0 1.753,0.785 1.753,1.753c0,0.967 -0.786,1.752 -1.753,1.752c-0.967,0 -1.752,-0.785 -1.752,-1.752c0,-0.968 0.785,-1.753 1.752,-1.753Zm-7.009,0.876c0.484,0 0.876,0.393 0.876,0.877c0,0.483 -0.392,0.876 -0.876,0.876c-0.483,0 -0.876,-0.393 -0.876,-0.876c0,-0.484 0.393,-0.877 0.876,-0.877Zm10.514,0c0.483,0 0.876,0.393 0.876,0.877c0,0.483 -0.393,0.876 -0.876,0.876c-0.484,0 -0.876,-0.393 -0.876,-0.876c0,-0.484 0.392,-0.877 0.876,-0.877Zm-14.018,0c0.483,0 0.876,0.393 0.876,0.877c0,0.483 -0.393,0.876 -0.876,0.876c-0.484,0 -0.877,-0.393 -0.877,-0.876c0,-0.484 0.393,-0.877 0.877,-0.877Zm7.009,0c0.483,0 0.876,0.393 0.876,0.877c0,0.483 -0.393,0.876 -0.876,0.876c-0.484,0 -0.876,-0.393 -0.876,-0.876c0,-0.484 0.392,-0.877 0.876,-0.877Zm-3.505,-3.504c0.484,0 0.876,0.392 0.876,0.876c0,0.483 -0.392,0.876 -0.876,0.876c-0.483,0 -0.876,-0.393 -0.876,-0.876c0,-0.484 0.393,-0.876 0.876,-0.876Zm10.514,0c0.483,0 0.876,0.392 0.876,0.876c0,0.483 -0.393,0.876 -0.876,0.876c-0.484,0 -0.876,-0.393 -0.876,-0.876c0,-0.484 0.392,-0.876 0.876,-0.876Zm-3.505,0c0.484,0 0.876,0.392 0.876,0.876c0,0.483 -0.392,0.876 -0.876,0.876c-0.483,0 -0.876,-0.393 -0.876,-0.876c0,-0.484 0.393,-0.876 0.876,-0.876Zm-10.513,0c0.483,0 0.876,0.392 0.876,0.876c0,0.483 -0.393,0.876 -0.876,0.876c-0.484,0 -0.877,-0.393 -0.877,-0.876c0,-0.484 0.393,-0.876 0.877,-0.876Zm7.009,0c0.483,0 0.876,0.392 0.876,0.876c0,0.483 -0.393,0.876 -0.876,0.876c-0.484,0 -0.876,-0.393 -0.876,-0.876c0,-0.484 0.392,-0.876 0.876,-0.876Z"/><rect x="13.575" y="13.634" width="9.896" height="13.373" style="fill:#fff;"/><g id="Menu--narrow-" serif:id="Menu (narrow)"><rect x="15.523" y="18.257" width="6" height="0.529"/><rect x="16" y="19.625" width="5.209" height="0.265"/></g><path id="Cancel" d="M18.383,18.508l1.874,-1.873c0.172,-0.173 0.451,-0.174 0.625,-0.001c0.172,0.173 0.173,0.452 -0.001,0.625l-1.873,1.874l1.873,1.874c0.173,0.172 0.174,0.451 0.001,0.625c-0.173,0.172 -0.452,0.173 -0.625,0l-1.874,-1.874l-1.874,1.874c-0.172,0.172 -0.451,0.173 -0.625,0c-0.172,-0.173 -0.173,-0.451 0.001,-0.625l1.873,-1.874l-1.873,-1.874c-0.173,-0.172 -0.174,-0.451 -0.001,-0.625c0.173,-0.172 0.451,-0.173 0.625,0.001l1.874,1.873Z" style="fill:#333;"/><path id="New-Document1" serif:id="New Document" d="M23.5,27.11l-0.142,-13.604l-10.163,0l0,13.604l10.305,0Zm-0.606,-0.592l-9.093,0l0,-12.421l9.004,-0.012l0.089,12.433Z" style="fill-rule:nonzero;"/></g></svg>