<?xml version="1.0" encoding="UTF-8" standalone="no"?><!DOCTYPE svg PUBLIC "-//W3C//DTD SVG 1.1//EN" "http://www.w3.org/Graphics/SVG/1.1/DTD/svg11.dtd"><svg width="100%" height="100%" viewBox="0 0 32 32" version="1.1" xmlns="http://www.w3.org/2000/svg" xmlns:xlink="http://www.w3.org/1999/xlink" xml:space="preserve" xmlns:serif="http://www.serif.com/" style="fill-rule:evenodd;clip-rule:evenodd;stroke-linejoin:round;stroke-miterlimit:2;"><path id="DOA" d="M0,0l0,32l32,0l0,-32l-32,0Z" style="fill:none;"/><clipPath id="_clip1"><path d="M0,0l0,32l32,0l0,-32l-32,0Z"/></clipPath><g clip-path="url(#_clip1)"><path id="New-Document" serif:id="New Document" d="M26.005,29l-0.276,-26l-19.734,0l0,26l20.01,0Zm-1.177,-1.13l-17.656,0l0,-23.74l17.484,-0.023l0.172,23.763Z" style="fill-rule:nonzero;"/><path id="New-Document1" serif:id="New Document" d="M27.824,21.217l0,-4.337" style="fill:none;fill-rule:nonzero;"/><path id="New-Document2" serif:id="New Document" d="M27.824,16.88l4.302,4.337" style="fill:none;fill-rule:nonzero;"/><g id="Menu--narrow-" serif:id="Menu (narrow)"><rect x="10.674" y="12.468" width="10.443" height="0.921"/><rect x="11.504" y="14.848" width="9.066" height="0.461"/></g><path id="Cancel" d="M22.698,7.96l6.025,-6.024c0.555,-0.556 1.45,-0.56 2.009,-0.001c0.554,0.554 0.557,1.45 -0.001,2.009l-6.024,6.024l6.024,6.024c0.555,0.555 0.559,1.451 0.001,2.01c-0.555,0.554 -1.451,0.557 -2.009,-0.001l-6.025,-6.025l-6.024,6.025c-0.555,0.555 -1.451,0.559 -2.009,0.001c-0.555,-0.555 -0.558,-1.451 0.001,-2.01l6.024,-6.024l-6.024,-6.024c-0.555,-0.555 -0.56,-1.451 -0.001,-2.009c0.554,-0.555 1.451,-0.558 2.009,0.001l6.024,6.024Z" style="fill:#333;"/></g></svg>