<?xml version="1.0" encoding="UTF-8" standalone="no"?><!DOCTYPE svg PUBLIC "-//W3C//DTD SVG 1.1//EN" "http://www.w3.org/Graphics/SVG/1.1/DTD/svg11.dtd"><svg width="100%" height="100%" viewBox="0 0 32 32" version="1.1" xmlns="http://www.w3.org/2000/svg" xmlns:xlink="http://www.w3.org/1999/xlink" xml:space="preserve" xmlns:serif="http://www.serif.com/" style="fill-rule:evenodd;clip-rule:evenodd;stroke-linecap:round;stroke-linejoin:round;stroke-miterlimit:1.5;"><path id="Top-Collections" serif:id="Top Collections" d="M0,0l0,32l32,0l0,-32l-32,0Z" style="fill:none;"/><clipPath id="_clip1"><path d="M0,0l0,32l32,0l0,-32l-32,0Z"/></clipPath><g clip-path="url(#_clip1)"><g><g id="Menu--wide-" serif:id="Menu (wide)"><path d="M5.232,11.631l1.552,0l0,15.735l-1.552,0l0,-15.735Z"/><path d="M0.059,27.366l0,-15.735l1.552,0l0,15.735l-1.552,0Z"/><rect x="-4.294" y="11.99" width="10.302" height="0.768"/></g><g id="Menu--wide-1" serif:id="Menu (wide)"><path d="M15.335,11.631l1.552,0l0,15.735l-1.552,0l0,-15.735Z"/><path d="M10.162,27.366l0,-15.735l1.552,0l0,15.735l-1.552,0Z"/><path d="M4.99,27.366l0,-15.735l1.552,0l0,15.735l-1.552,0Z"/><rect x="5.809" y="11.99" width="10.302" height="0.768"/></g></g><g id="Menu--wide-2" serif:id="Menu (wide)"><rect x="-5.294" y="26.239" width="10.302" height="0.768"/></g><g id="Menu--wide-3" serif:id="Menu (wide)"><rect x="5.809" y="26.239" width="10.302" height="0.768"/></g><g><g id="Menu--wide-4" serif:id="Menu (wide)"></g><g id="Menu--wide-5" serif:id="Menu (wide)"></g></g><g id="Menu--wide-6" serif:id="Menu (wide)"></g><g id="Menu--wide-7" serif:id="Menu (wide)"></g><rect x="0.887" y="27.366" width="30.227" height="1.5" style="fill:none;stroke:#000;stroke-width:0.52px;"/><g><g id="Menu--wide-8" serif:id="Menu (wide)"><path d="M25.861,11.631l1.552,0l0,15.735l-1.552,0l0,-15.735Z"/><path d="M20.688,27.366l0,-15.735l1.552,0l0,15.735l-1.552,0Z"/><path d="M15.516,27.366l0,-15.735l1.552,0l0,15.735l-1.552,0Z"/><rect x="16.335" y="11.99" width="10.302" height="0.768"/></g><g id="Menu--wide-9" serif:id="Menu (wide)"><path d="M30.792,27.366l0,-15.735l1.551,0l0,15.735l-1.551,0Z"/><path d="M25.619,27.366l0,-15.735l1.552,0l0,15.735l-1.552,0Z"/><rect x="26.438" y="11.99" width="10.302" height="0.768"/></g></g><g id="Menu--wide-10" serif:id="Menu (wide)"><rect x="15.335" y="26.239" width="10.302" height="0.768"/></g><g id="Menu--wide-11" serif:id="Menu (wide)"><rect x="26.438" y="26.239" width="10.302" height="0.768"/></g><path id="Star" d="M15.308,7.14c-0.071,-0.199 -0.263,-0.328 -0.489,-0.328l-4.627,-0.011l-1.46,-3.97c-0.072,-0.198 -0.263,-0.332 -0.493,-0.323c-0.226,0.002 -0.417,0.132 -0.485,0.332l-1.367,3.961l-4.683,0.011c-0.226,0 -0.419,0.129 -0.489,0.328c-0.072,0.199 0.001,0.408 0.183,0.532l3.665,2.501l-1.437,4.203c-0.069,0.2 0.005,0.408 0.189,0.531c0.092,0.062 0.198,0.093 0.303,0.093c0.105,0 0.209,-0.03 0.299,-0.09l3.864,-2.52l3.825,2.518c0.182,0.123 0.421,0.122 0.604,-0.001c0.183,-0.122 0.257,-0.33 0.189,-0.53l-1.439,-4.204l3.664,-2.5c0.183,-0.125 0.255,-0.334 0.184,-0.533Z" style="fill:#fff;stroke:#333;stroke-width:1px;stroke-linecap:butt;stroke-miterlimit:2;"/></g></svg>