<?xml version="1.0" encoding="UTF-8" standalone="no"?><!DOCTYPE svg PUBLIC "-//W3C//DTD SVG 1.1//EN" "http://www.w3.org/Graphics/SVG/1.1/DTD/svg11.dtd"><svg width="100%" height="100%" viewBox="0 0 32 32" version="1.1" xmlns="http://www.w3.org/2000/svg" xmlns:xlink="http://www.w3.org/1999/xlink" xml:space="preserve" xmlns:serif="http://www.serif.com/" style="fill-rule:evenodd;clip-rule:evenodd;stroke-linejoin:round;stroke-miterlimit:2;"><path id="Transfer" d="M0,0l0,32l32,0l0,-32l-32,0Z" style="fill:none;"/><path id="New-Document" serif:id="New Document" d="M23.2,29.691l-0.276,-26l-19.735,0l0,26l20.011,0Zm-1.177,-1.131l-17.657,0l0,-23.739l17.484,-0.024l0.173,23.763Z" style="fill-rule:nonzero;"/><path id="New-Document1" serif:id="New Document" d="M23.059,15.112l0,-5.773" style="fill:none;fill-rule:nonzero;"/><path id="New-Document2" serif:id="New Document" d="M23.059,9.339l5.728,5.773" style="fill:none;fill-rule:nonzero;"/><g id="Menu--narrow-" serif:id="Menu (narrow)"><rect x="7.827" y="12.888" width="10.617" height="0.937"/><rect x="8.671" y="15.308" width="9.217" height="0.468"/></g><path id="Forward--small-" serif:id="Forward (small)" d="M30.514,13.825l-6.627,-6.508l0,3.846l-8.283,0l0,5.325l8.283,0l0,3.845l6.627,-6.508Z" style="fill:#333;fill-rule:nonzero;"/></svg>