<?xml version="1.0" encoding="UTF-8" standalone="no"?><!DOCTYPE svg PUBLIC "-//W3C//DTD SVG 1.1//EN" "http://www.w3.org/Graphics/SVG/1.1/DTD/svg11.dtd"><svg width="100%" height="100%" viewBox="0 0 32 32" version="1.1" xmlns="http://www.w3.org/2000/svg" xmlns:xlink="http://www.w3.org/1999/xlink" xml:space="preserve" xmlns:serif="http://www.serif.com/" style="fill-rule:evenodd;clip-rule:evenodd;stroke-linejoin:round;stroke-miterlimit:2;"><path id="Top-Circ" serif:id="Top Circ" d="M0,0l0,32l32,0l0,-32l-32,0Z" style="fill:none;"/><path id="New-Document" serif:id="New Document" d="M26.005,29l-0.276,-26l-19.734,0l0,26l20.01,0Zm-1.177,-1.13l-17.656,0l0,-23.74l17.484,-0.023l0.172,23.763Z" style="fill-rule:nonzero;"/><path id="Star" d="M23.047,14.386c-0.071,-0.199 -0.263,-0.328 -0.489,-0.328l-4.628,-0.01l-1.459,-3.971c-0.073,-0.198 -0.263,-0.331 -0.493,-0.323c-0.227,0.002 -0.418,0.132 -0.486,0.332l-1.366,3.962l-4.683,0.01c-0.227,0 -0.419,0.129 -0.49,0.328c-0.071,0.199 0.001,0.409 0.184,0.533l3.665,2.501l-1.437,4.203c-0.069,0.2 0.005,0.408 0.188,0.531c0.093,0.061 0.198,0.092 0.304,0.092c0.104,0 0.208,-0.03 0.299,-0.09l3.863,-2.52l3.826,2.518c0.182,0.123 0.42,0.123 0.603,0c0.184,-0.123 0.258,-0.331 0.19,-0.531l-1.44,-4.203l3.665,-2.501c0.182,-0.124 0.255,-0.334 0.184,-0.533Z" style="fill:none;stroke:#000;stroke-width:1px;"/></svg>