<?xml version="1.0" encoding="UTF-8" standalone="no"?><!DOCTYPE svg PUBLIC "-//W3C//DTD SVG 1.1//EN" "http://www.w3.org/Graphics/SVG/1.1/DTD/svg11.dtd"><svg width="100%" height="100%" viewBox="0 0 32 32" version="1.1" xmlns="http://www.w3.org/2000/svg" xmlns:xlink="http://www.w3.org/1999/xlink" xml:space="preserve" xmlns:serif="http://www.serif.com/" style="fill-rule:evenodd;clip-rule:evenodd;stroke-linecap:round;stroke-linejoin:round;stroke-miterlimit:1.5;"><path id="Worn" d="M0,0l0,32l32,0l0,-32l-32,0Z" style="fill:none;"/><clipPath id="_clip1"><path d="M0,0l0,32l32,0l0,-32l-32,0Z"/></clipPath><g clip-path="url(#_clip1)"><path id="New-Document" serif:id="New Document" d="M27.824,21.217l0,-4.337" style="fill:none;fill-rule:nonzero;"/><path id="New-Document1" serif:id="New Document" d="M27.824,16.88l4.302,4.337" style="fill:none;fill-rule:nonzero;"/><g><path id="New-Document2" serif:id="New Document" d="M1,12.043l0,-9.043l7.395,0l8.319,0l0,26l-15.714,0l0,-16.957Zm7.395,-7.517l-6.147,7.517l4.97,-1.507l1.177,-6.01Zm-6.471,23.344l13.866,0l0,-23.74l-6.471,0l-1.176,7.537l-6.219,1.507l0,14.696Z" style="fill-rule:nonzero;"/></g><path id="New-Document3" serif:id="New Document" d="M31.655,28.987l-0.218,-26l-15.569,0l0,26l15.787,0Zm-0.929,-1.13l-13.929,0l0,-23.739l13.793,-0.024l0.136,23.763Z" style="fill-rule:nonzero;"/><path d="M26.286,25.457l0.536,-1.358l-0.143,-1.672l0.214,-1.254l0.465,-2.089l-0.072,2.716l-0.143,0.836l0.25,1.15l-0.214,1.358l-0.893,0.313Z" style="stroke:#000;stroke-width:0.17px;"/><path d="M27.133,25.209l-0.519,0.894l0.138,1.101l-0.207,0.826l-0.384,0.066l0.004,-0.479l0.138,-0.55l-0.242,-0.757l0.207,-0.895l0.865,-0.206Z" style="stroke:#000;stroke-width:0.17px;"/></g></svg>