<?xml version="1.0" encoding="UTF-8" standalone="no"?>
<!DOCTYPE svg PUBLIC "-//W3C//DTD SVG 1.1//EN" "http://www.w3.org/Graphics/SVG/1.1/DTD/svg11.dtd">
<svg width="100%" height="100%" viewBox="0 0 64 32" version="1.1" xmlns="http://www.w3.org/2000/svg" xmlns:xlink="http://www.w3.org/1999/xlink" xml:space="preserve" xmlns:serif="http://www.serif.com/" style="fill-rule:evenodd;clip-rule:evenodd;stroke-linecap:round;stroke-linejoin:round;stroke-miterlimit:1.5;">
    <g id="Artboard1" transform="matrix(6.12323e-17,-1,1,6.12323e-17,0,32)">
        <rect x="0" y="0" width="32" height="64" style="fill:none;"/>
        <clipPath id="_clip1">
            <rect x="0" y="0" width="32" height="64"/>
        </clipPath>
        <g clip-path="url(#_clip1)">
            <g transform="matrix(5.93188e-17,0.96875,-0.984375,6.02756e-17,31.5,1)">
                <path d="M64,8C64,3.585 60.358,0 55.871,0L8.129,0C3.642,0 0,3.585 0,8L0,24C0,28.415 3.642,32 8.129,32L55.871,32C60.358,32 64,28.415 64,24L64,8Z" style="fill:none;stroke:black;stroke-width:0.53px;"/>
            </g>
            <g id="Down" transform="matrix(2.24021e-17,0.365854,-0.365854,2.24021e-17,153.765,-97.1707)">
                <path d="M302.5,408L323,388.1L320.9,386L302.5,403.9L284.1,386L282,388.1L302.5,408Z" style="fill-rule:nonzero;"/>
                <path d="M320.984,384.571L321.132,384.588L321.277,384.619L321.418,384.666L321.553,384.727L321.682,384.801L321.802,384.889L321.912,384.988L324.012,387.088L324.113,387.2L324.202,387.323L324.277,387.454L324.338,387.592L324.384,387.736L324.415,387.885L324.43,388.035L324.429,388.186L324.412,388.336L324.379,388.484L324.331,388.627L324.267,388.765L324.19,388.895L324.1,389.016L323.997,389.127L303.497,409.027L303.386,409.124L303.266,409.209L303.138,409.281L303.004,409.34L302.864,409.384L302.72,409.414L302.573,409.429L302.427,409.429L302.28,409.414L302.136,409.384L301.996,409.34L301.862,409.281L301.734,409.209L301.614,409.124L301.503,409.027L281.003,389.127L280.9,389.016L280.81,388.895L280.733,388.765L280.669,388.627L280.621,388.484L280.588,388.336L280.571,388.186L280.57,388.035L280.585,387.885L280.616,387.736L280.662,387.592L280.723,387.454L280.798,387.323L280.887,387.2L280.988,387.088L283.088,384.988L283.198,384.889L283.318,384.801L283.447,384.727L283.582,384.666L283.723,384.619L283.868,384.588L284.016,384.571L284.164,384.57L284.312,384.585L284.458,384.614L284.599,384.659L284.736,384.718L284.865,384.79L284.986,384.876L285.098,384.974L302.5,401.903L319.902,384.974L320.014,384.876L320.135,384.79L320.264,384.718L320.401,384.659L320.542,384.614L320.688,384.585L320.836,384.57L320.984,384.571ZM303.498,404.926L303.387,405.023L303.267,405.108L303.139,405.181L303.004,405.239L302.864,405.284L302.72,405.314L302.574,405.329L302.426,405.329L302.28,405.314L302.136,405.284L301.996,405.239L301.861,405.181L301.733,405.108L301.613,405.023L301.502,404.926L284.114,388.01L284.039,388.085L302.5,406.005L320.961,388.085L320.886,388.01L303.498,404.926Z"/>
            </g>
            <g id="Down1" serif:id="Down" transform="matrix(2.24021e-17,0.365854,0.365854,-2.24021e-17,-121.556,-97.1707)">
                <path d="M302.5,408L323,388.1L320.9,386L302.5,403.9L284.1,386L282,388.1L302.5,408Z" style="fill-rule:nonzero;"/>
                <path d="M302.72,409.414L302.864,409.384L303.004,409.34L303.138,409.281L303.266,409.209L303.386,409.124L303.497,409.027L323.997,389.127L324.1,389.016L324.19,388.895L324.267,388.765L324.331,388.627L324.379,388.484L324.412,388.336L324.429,388.186L324.43,388.035L324.415,387.885L324.384,387.736L324.338,387.592L324.277,387.454L324.202,387.323L324.113,387.2L324.012,387.088L321.912,384.988L321.802,384.889L321.682,384.801L321.553,384.727L321.418,384.666L321.277,384.619L321.132,384.588L320.984,384.571L320.836,384.57L320.688,384.585L320.542,384.614L320.401,384.659L320.264,384.718L320.135,384.79L320.014,384.876L319.902,384.974L302.5,401.903L285.098,384.974L284.986,384.876L284.865,384.79L284.736,384.718L284.599,384.659L284.458,384.614L284.312,384.585L284.164,384.57L284.016,384.571L283.868,384.588L283.723,384.619L283.582,384.666L283.447,384.727L283.318,384.801L283.198,384.889L283.088,384.988L280.988,387.088L280.887,387.2L280.798,387.323L280.723,387.454L280.662,387.592L280.616,387.736L280.585,387.885L280.57,388.035L280.571,388.186L280.588,388.336L280.621,388.484L280.669,388.627L280.733,388.765L280.81,388.895L280.9,389.016L281.003,389.127L301.503,409.027L301.614,409.124L301.734,409.209L301.862,409.281L301.996,409.34L302.136,409.384L302.28,409.414L302.427,409.429L302.573,409.429L302.72,409.414ZM302.864,405.284L303.004,405.239L303.139,405.181L303.267,405.108L303.387,405.023L303.498,404.926L320.886,388.01L320.961,388.085L302.5,406.005L284.039,388.085L284.114,388.01L301.502,404.926L301.613,405.023L301.733,405.108L301.861,405.181L301.996,405.239L302.136,405.284L302.28,405.314L302.426,405.329L302.574,405.329L302.72,405.314L302.864,405.284Z"/>
            </g>
            <g id="Menu--narrow-" serif:id="Menu (narrow)" transform="matrix(4.80117e-17,0.784091,-0.909091,5.56658e-17,945.818,-1388.15)">
                <g transform="matrix(1,-7.39557e-32,9.86076e-32,1,1124.8,977.5)">
                    <rect x="676.2" y="36.5" width="44" height="3"/>
                    <path d="M720.304,35.931L720.406,35.952L720.503,35.987L720.593,36.034L720.672,36.093L720.74,36.161L720.795,36.239L720.835,36.322L720.86,36.41L720.868,36.5L720.868,39.5L720.86,39.59L720.835,39.678L720.795,39.761L720.74,39.839L720.672,39.907L720.593,39.966L720.503,40.013L720.406,40.048L720.304,40.069L720.2,40.076L676.2,40.076L676.096,40.069L675.994,40.048L675.897,40.013L675.807,39.966L675.728,39.907L675.66,39.839L675.605,39.761L675.565,39.678L675.54,39.59L675.532,39.5L675.532,36.5L675.54,36.41L675.565,36.322L675.605,36.239L675.66,36.161L675.728,36.093L675.807,36.034L675.897,35.987L675.994,35.952L676.096,35.931L676.2,35.924L720.2,35.924L720.304,35.931ZM676.868,37.076L676.868,38.924L719.532,38.924L719.532,37.076L676.868,37.076Z"/>
                </g>
                <g transform="matrix(1,-7.39557e-32,9.86076e-32,1,1124.8,977.5)">
                    <rect x="676.2" y="43.5" width="44" height="3"/>
                    <path d="M720.304,42.931L720.406,42.952L720.503,42.987L720.593,43.034L720.672,43.093L720.74,43.161L720.795,43.239L720.835,43.322L720.86,43.41L720.868,43.5L720.868,46.5L720.86,46.59L720.835,46.678L720.795,46.761L720.74,46.839L720.672,46.907L720.593,46.966L720.503,47.013L720.406,47.048L720.304,47.069L720.2,47.076L676.2,47.076L676.096,47.069L675.994,47.048L675.897,47.013L675.807,46.966L675.728,46.907L675.66,46.839L675.605,46.761L675.565,46.678L675.54,46.59L675.532,46.5L675.532,43.5L675.54,43.41L675.565,43.322L675.605,43.239L675.66,43.161L675.728,43.093L675.807,43.034L675.897,42.987L675.994,42.952L676.096,42.931L676.2,42.924L720.2,42.924L720.304,42.931ZM676.868,44.076L676.868,45.924L719.532,45.924L719.532,44.076L676.868,44.076Z"/>
                </g>
                <g transform="matrix(1,-7.39557e-32,9.86076e-32,1,1124.8,977.5)">
                    <rect x="676.2" y="50.5" width="44" height="3"/>
                    <path d="M720.304,49.931L720.406,49.952L720.503,49.987L720.593,50.034L720.672,50.093L720.74,50.161L720.795,50.239L720.835,50.322L720.86,50.41L720.868,50.5L720.868,53.5L720.86,53.59L720.835,53.678L720.795,53.761L720.74,53.839L720.672,53.907L720.593,53.966L720.503,54.013L720.406,54.048L720.304,54.069L720.2,54.076L676.2,54.076L676.096,54.069L675.994,54.048L675.897,54.013L675.807,53.966L675.728,53.907L675.66,53.839L675.605,53.761L675.565,53.678L675.54,53.59L675.532,53.5L675.532,50.5L675.54,50.41L675.565,50.322L675.605,50.239L675.66,50.161L675.728,50.093L675.807,50.034L675.897,49.987L675.994,49.952L676.096,49.931L676.2,49.924L720.2,49.924L720.304,49.931ZM676.868,51.076L676.868,52.924L719.532,52.924L719.532,51.076L676.868,51.076Z"/>
                </g>
            </g>
        </g>
    </g>
</svg>
